<?xml version="1.0" encoding="UTF-8"?>
<svg xmlns="http://www.w3.org/2000/svg" width="27" height="28" viewBox="0 0 27 28" fill="none">
  <path fill-rule="evenodd" clip-rule="evenodd" d="M18.4317 27.4896C13.5451 27.4851 6.1941 27.4848 1.00199 27.4848C0.449795 27.4848 0.00223963 27.0372 0.00210804 26.485C0.000124123 18.1599 -0.00153865 9.8347 0.00237517 1.50955C0.00263471 0.957468 0.449592 0.510071 1.00167 0.510071H18.968L4.45944 19.407C3.95444 20.0648 4.42264 21.016 5.25189 21.016H18.4269C18.4269 22.095 18.4281 23.1739 18.4293 24.2528C18.4305 25.3317 18.4317 26.4107 18.4317 27.4896ZM18.4334 11.4996C18.4329 11.8608 18.4324 12.222 18.4324 12.5832C18.4324 12.9639 18.4329 13.4126 18.4334 13.8864L18.4334 13.8924C18.4345 14.9291 18.4357 16.0855 18.4324 16.9149H11.5645C12.5718 15.5109 13.6406 14.1537 14.7097 12.7962L14.7097 12.7962L14.7097 12.7961L14.7097 12.7961C15.9806 11.1823 17.2517 9.5682 18.42 7.87482C18.4367 9.08287 18.435 10.2911 18.4334 11.4993V11.4996ZM25.9722 0.510071C26.5245 0.510071 26.9715 0.957769 26.9715 1.51005L26.9714 2.4352C26.9713 7.2318 26.9711 12.1936 26.9811 16.9388C26.2393 16.9388 25.4975 16.9376 24.7557 16.9364L24.7522 16.9364L24.7487 16.9364C24.0069 16.9352 23.2651 16.934 22.5233 16.934C22.5233 14.3304 22.5221 11.5262 22.5209 8.72205L22.5209 8.70768C22.5197 5.90831 22.5185 3.10928 22.5185 0.510071H25.9722ZM26.9752 21.0114C25.8021 21.021 22.5178 21.0164 22.5178 21.0164C22.5178 21.0164 22.5089 26.7127 22.5132 27.4899L25.9764 27.4825C26.5264 27.4813 26.9722 27.0362 26.9735 26.4863C26.9766 25.1552 26.9761 23.824 26.9756 22.4929C26.9754 21.999 26.9752 21.5052 26.9752 21.0114Z" fill="#3E537A"></path>
  <path fill-rule="evenodd" clip-rule="evenodd" d="M18.4317 27.4896C13.5451 27.4851 6.1941 27.4848 1.00199 27.4848C0.449795 27.4848 0.00223963 27.0372 0.00210804 26.485C0.000124123 18.1599 -0.00153865 9.8347 0.00237517 1.50955C0.00263471 0.957468 0.449592 0.510071 1.00167 0.510071H18.968L4.45944 19.407C3.95444 20.0648 4.42264 21.016 5.25189 21.016H18.4269C18.4269 22.095 18.4281 23.1739 18.4293 24.2528C18.4305 25.3317 18.4317 26.4107 18.4317 27.4896ZM18.4334 11.4996C18.4329 11.8608 18.4324 12.222 18.4324 12.5832C18.4324 12.9639 18.4329 13.4126 18.4334 13.8864L18.4334 13.8924C18.4345 14.9291 18.4357 16.0855 18.4324 16.9149H11.5645C12.5718 15.5109 13.6406 14.1537 14.7097 12.7962L14.7097 12.7962L14.7097 12.7961L14.7097 12.7961C15.9806 11.1823 17.2517 9.5682 18.42 7.87482C18.4367 9.08287 18.435 10.2911 18.4334 11.4993V11.4996ZM25.9722 0.510071C26.5245 0.510071 26.9715 0.957769 26.9715 1.51005L26.9714 2.4352C26.9713 7.2318 26.9711 12.1936 26.9811 16.9388C26.2393 16.9388 25.4975 16.9376 24.7557 16.9364L24.7522 16.9364L24.7487 16.9364C24.0069 16.9352 23.2651 16.934 22.5233 16.934C22.5233 14.3304 22.5221 11.5262 22.5209 8.72205L22.5209 8.70768C22.5197 5.90831 22.5185 3.10928 22.5185 0.510071H25.9722ZM26.9752 21.0114C25.8021 21.021 22.5178 21.0164 22.5178 21.0164C22.5178 21.0164 22.5089 26.7127 22.5132 27.4899L25.9764 27.4825C26.5264 27.4813 26.9722 27.0362 26.9735 26.4863C26.9766 25.1552 26.9761 23.824 26.9756 22.4929C26.9754 21.999 26.9752 21.5052 26.9752 21.0114Z" fill="url(#paint0_linear_3_534)"></path>
  <defs>
    <linearGradient id="paint0_linear_3_534" x1="0.0522966" y1="0.763946" x2="27.3852" y2="1.20208" gradientUnits="userSpaceOnUse">
      <stop stop-color="#1AACFF"></stop>
      <stop offset="1" stop-color="#4768FD"></stop>
      <stop offset="1" stop-color="#4768FD"></stop>
    </linearGradient>
  </defs>
</svg>
